# xmcd
#
# Track frame offsets:
#	150
#	18872
#	34992
#	49780
#	69720
#
# Disc length: 1193 seconds
#
# Revision: 1
# Processed by: cddbd v1.5.1PL0 Copyright (c) Steve Scherf et al.
# Submitted via: audiograbber 1.83.01
#
DISCID=3d04a705
DTITLE=Backbenches - nineteenseventysix
DYEAR=1999
DGENRE=Pop
TTITLE0=Nineteenseventysix
TTITLE1=U-changed
TTITLE2=Burdensome Soul
TTITLE3=Last
TTITLE4=Tuesday Night
EXTD=
EXTT0=great french band\nplease visit www.backbenches.com for more informations
EXTT0=
EXTT1=
EXTT2=
EXTT3=
EXTT4=
PLAYORDER=
